# xmcd
#
# Track frame offsets:
#	150
#	29420
#	52208
#	73665
#	95898
#	102143
#	120840
#	138728
#	162030
#
# Disc length: 2609 seconds
#
# Revision: 1
# Processed by: cddbd v1.5.2PL0 Copyright (c) Steve Scherf et al.
# Submitted via: EZCDAudioConverter 8.0.2.1
#
DISCID=7d0a2f09
DTITLE=QT. Eagles - Hotel California
DYEAR=1976
DGENRE=Contemporary Country
TTITLE0=Hotel California
TTITLE1=New Kid In Town
TTITLE2=Life In The Fast Lane
TTITLE3=Wasted Time
TTITLE4=Wasted Time (Reprise)
TTITLE5=Victim Of Love
TTITLE6=Pretty Maids All In A Row
TTITLE7=Try And Love Again
TTITLE8=The Last Resort
EXTD=
EXTT0=
EXTT1=
EXTT2=
EXTT3=
EXTT4=
EXTT5=
EXTT6=
EXTT7=
EXTT8=
PLAYORDER=
